name analog
datacolumns 19
datarows 23
range 0.0 0.011
endheader
time	ground_force_vx	ground_force_vy	ground_force_vz	ground_force_px	ground_force_py	ground_force_pz	l_ground_force_vx	l_ground_force_vy	l_ground_force_vz	l_ground_force_px	l_ground_force_py	l_ground_force_pz	ground_torque_x	ground_torque_y	ground_torque_z	l_ground_torque_x	l_ground_torque_y	l_ground_torque_z
0.0	-0.0	-0.0	-0.0	10.12558364868164	-13.425409317016602	-736.2028198242188	-9.814061164855955	-3.6102917194366455	-30.19935417175293	-35.25746154785156	16.44184684753418	76.4635009765625	-0.0	-0.0	-0.0	13307.943359375	4242.29443359375	-4828.49560546875
0.0005	-0.0	-0.0	-0.0	9.712724685668944	-13.670345306396484	-736.4683227539062	-9.148193359375	-3.54380202293396	-29.850791931152344	-35.02263259887695	16.25049591064453	75.14797973632812	-0.0	-0.0	-0.0	13916.0615234375	4330.0205078125	-4731.33349609375
0.001	-0.0	-0.0	-0.0	10.047290802001951	-14.372305870056152	-738.455078125	-9.591772079467772	-3.543826103210449	-31.816118240356445	-34.8662109375	16.105478286743164	76.02723693847656	-0.0	-0.0	-0.0	14123.6318359375	4196.86474609375	-4757.64892578125
0.0015	-0.0	-0.0	-0.0	9.679132461547852	-14.372381210327148	-739.2942504882812	-9.503098487854004	-3.389211893081665	-30.244384765625	-35.067718505859375	16.081768035888672	75.67227172851562	-0.0	-0.0	-0.0	13659.9794921875	4434.3154296875	-4839.16455078125
0.002	-0.0	-0.0	-0.0	9.891125679016112	-14.650362014770508	-739.7368774414062	-9.625147819519045	-3.4666123390197754	-31.11811065673828	-34.799346923828125	16.148788452148438	75.58854675292969	-0.0	-0.0	-0.0	13631.7958984375	4151.2529296875	-4646.43359375
0.0025	-0.0	-0.0	-0.0	9.712676048278809	-13.993473052978516	-739.7781372070312	-9.126269340515137	-3.643311500549317	-30.594161987304688	-34.86600112915039	15.83640480041504	76.11189270019531	-0.0	-0.0	-0.0	13789.806640625	4200.50634765625	-4731.4287109375
0.003	-0.0	-0.0	-0.0	9.769166946411133	-13.50387191772461	-739.8721313476562	-9.392197608947754	-3.4667398929595947	-31.335906982421875	-35.23317337036133	15.892163276672363	76.67906188964844	-0.0	-0.0	-0.0	13780.3359375	4222.4873046875	-4701.93310546875
0.0035	-0.0	-0.0	-0.0	9.980234146118164	-13.235097885131836	-740.7529907226562	-9.225921630859377	-3.411895990371704	-31.11850929260254	-34.73283386230469	16.17145538330078	76.06658935546875	-0.0	-0.0	-0.0	13868.0224609375	4079.1845703125	-4731.236328125
0.004	-0.0	-0.0	-0.0	9.835917472839355	-12.29999542236328	-742.4671020507812	-9.259584426879885	-3.4009108543396	-30.42035484313965	-34.95524215698242	16.23819351196289	75.59019470214844	-0.0	-0.0	-0.0	13726.505859375	4135.4658203125	-4620.3837890625
0.0045000000000000005	-0.0	-0.0	-0.0	9.79236888885498	-11.799394607543944	-743.5340576171875	-9.137210845947266	-3.643578290939331	-30.02703857421875	-34.88880157470703	16.194534301757812	76.6775131225586	-0.0	-0.0	-0.0	13509.0126953125	4192.20849609375	-4572.3408203125
0.005	-0.0	-0.0	-0.0	10.080787658691406	-11.052169799804688	-743.6249389648438	-9.148491859436035	-3.995406150817871	-30.55379676818848	-34.85408401489258	16.394611358642578	75.103759765625	-0.0	-0.0	-0.0	13488.0654296875	4076.31005859375	-4527.25732421875
0.0055	-0.0	-0.0	-0.0	9.735424995422363	-10.350595474243164	-745.0279541015625	-9.093775749206545	-3.6888043880462646	-31.943750381469727	-34.70988464355469	16.002918243408203	75.59135437011719	-0.0	-0.0	-0.0	13538.2578125	4050.122314453125	-4468.365234375
0.006	-0.0	-0.0	-0.0	9.47932243347168	-9.858993530273438	-744.1956787109375	-8.627633094787598	-4.083356380462647	-29.84845352172852	-34.6633415222168	16.351070404052734	76.06532287597656	-0.0	-0.0	-0.0	13731.40234375	4170.74658203125	-4619.59033203125
0.006500000000000001	-0.0	-0.0	-0.0	9.27789306640625	-9.00217056274414	-742.8287963867188	-9.11444854736328	-3.940482616424561	-30.98490524291992	-35.0521240234375	16.753883361816406	75.50050354003906	-0.0	-0.0	-0.0	13929.1474609375	4142.73095703125	-4561.3037109375
0.007	-0.0	-0.0	-0.0	8.866579055786133	-8.269411087036133	-741.2788696289062	-8.762167930603027	-3.566972494125366	-30.51101303100586	-34.919708251953125	16.429109573364258	76.11067199707031	-0.0	-0.0	-0.0	13925.0126953125	4300.84912109375	-4553.3720703125
0.0075	-0.0	-0.0	-0.0	8.567776679992676	-7.343453407287598	-740.4805297851562	-9.10290241241455	-3.632575035095215	-31.5136661529541	-34.83453369140625	16.386268615722656	76.11060333251953	-0.0	-0.0	-0.0	13888.828125	4353.623046875	-4597.67431640625
0.008	-0.0	-0.0	-0.0	8.164695739746094	-6.533633708953857	-739.697021484375	-9.18002700805664	-3.96305251121521	-32.03163146972656	-34.65105438232422	16.4171085357666	75.66718292236328	-0.0	-0.0	-0.0	14137.3857421875	4328.81396484375	-4631.2890625
0.0085	-0.0	-0.0	-0.0	7.780489444732666	-6.696442127227783	-736.7333984375	-8.913744926452637	-4.051336765289307	-30.95187187194824	-34.95465469360352	15.882143020629885	75.85197448730469	-0.0	-0.0	-0.0	14103.583984375	4517.7802734375	-4591.02783203125
0.009000000000000001	-0.0	-0.0	-0.0	6.935024261474609	-6.757856369018555	-737.7293090820312	-9.20284938812256	-4.162604808807373	-31.909008026123047	-34.7453727722168	16.00269889831543	77.02384185791016	-0.0	-0.0	-0.0	14535.6650390625	4545.080078125	-4601.67138671875
0.0095	-0.0	-0.0	-0.0	6.988953590393066	-6.607374668121338	-735.8411254882812	-8.813211441040039	-4.358470916748047	-33.12385177612305	-34.97826385498047	16.31479835510254	74.72774505615234	-0.0	-0.0	-0.0	14745.2724609375	4559.2958984375	-4627.2255859375
0.01	-0.0	-0.0	-0.0	6.333946228027344	-6.975696086883545	-734.8275756835938	-8.793978691101074	-4.062797546386719	-33.68490982055664	-34.82315826416016	16.36250114440918	76.507568359375	-0.0	-0.0	-0.0	14829.76171875	4563.1669921875	-4612.9775390625
0.0105	-0.0	-0.0	-0.0	6.179125308990479	-7.261535167694092	-733.6743774414062	-8.91762924194336	-4.515992641448975	-34.42859649658203	-35.10945129394531	15.948625564575195	75.4547119140625	-0.0	-0.0	-0.0	15053.3818359375	4584.25244140625	-4716.28857421875
0.011	-0.0	-0.0	-0.0	5.917044162750244	-7.332344055175781	-730.2824096679688	-8.882752418518066	-4.427706718444824	-33.775814056396484	-34.942359924316406	15.93666172027588	74.94062042236328	-0.0	-0.0	-0.0	15180.04296875	4644.21142578125	-4716.21728515625
